<?xml version="1.0" standalone="no"?>
<!DOCTYPE svg PUBLIC "-//W3C//DTD SVG 20010904//EN"
 "http://www.w3.org/TR/2001/REC-SVG-20010904/DTD/svg10.dtd">
<svg version="1.0" xmlns="http://www.w3.org/2000/svg"
 width="300.000000pt" height="300.000000pt" viewBox="0 0 300.000000 300.000000"
 preserveAspectRatio="xMidYMid meet">
<metadata>
Created by potrace 1.10, written by Peter Selinger 2001-2011
</metadata>
<g transform="translate(0.000000,300.000000) scale(0.100000,-0.100000)"
fill="#000000" stroke="none">
<path d="M490 2258 c-109 -55 -110 -57 -110 -338 0 -230 1 -238 23 -271 46
-69 43 -69 522 -69 474 0 473 0 519 63 20 27 21 41 21 277 0 290 2 284 -105
337 l-65 31 -370 1 -370 1 -65 -32z m830 -18 c11 -11 27 -20 36 -20 8 0 29
-13 45 -29 l29 -29 0 -242 0 -242 -29 -29 -29 -29 -447 0 -447 0 -29 29 -29
29 0 240 c0 225 1 241 20 265 11 14 31 29 43 33 12 4 33 15 46 25 22 18 48 19
397 19 361 0 375 -1 394 -20z"/>
<path d="M532 2220 c-21 -20 -22 -28 -22 -216 0 -194 0 -195 25 -219 l24 -25
356 0 c379 0 405 3 420 49 3 11 5 102 4 202 -2 160 -5 184 -22 205 l-18 24
-373 0 c-361 0 -373 -1 -394 -20z m758 -29 c6 -12 10 -93 10 -195 0 -163 -1
-176 -19 -186 -13 -6 -146 -10 -364 -10 -277 0 -347 3 -356 13 -7 9 -11 76
-12 193 0 159 2 180 17 191 14 10 99 13 366 13 333 0 348 -1 358 -19z"/>
<path d="M760 2140 c-82 -15 -125 -66 -124 -146 1 -62 30 -109 80 -130 41 -17
98 -18 124 -2 14 9 24 9 42 0 29 -15 142 -9 163 8 13 11 21 10 50 -6 l34 -18
32 29 31 30 -4 101 c-2 83 -7 106 -22 123 -28 30 -58 26 -95 -14 -37 -42 -87
-47 -128 -15 -14 11 -38 20 -53 20 -15 0 -43 6 -61 13 -20 8 -48 11 -69 7z
m390 -135 l0 -115 -25 0 -25 0 0 115 0 115 25 0 25 0 0 -115z m-321 96 c27
-17 4 -41 -38 -41 -30 0 -44 -6 -55 -22 -37 -53 -2 -112 62 -106 32 3 37 0 40
-19 3 -21 0 -23 -52 -23 -43 0 -61 5 -81 23 -34 29 -44 91 -20 136 24 48 105
77 144 52z m91 -35 c0 -16 5 -23 17 -22 10 0 19 -7 21 -16 2 -13 -3 -18 -17
-18 -18 0 -21 -6 -21 -40 0 -29 4 -40 15 -40 21 0 31 -30 14 -41 -18 -11 -50
-2 -66 19 -7 9 -13 35 -13 58 0 23 -5 44 -12 46 -16 6 11 66 32 72 28 7 30 6
30 -18z m100 -33 c0 -15 1 -15 18 0 25 23 42 21 42 -3 0 -13 -10 -24 -25 -30
-22 -8 -25 -15 -25 -60 0 -47 -2 -50 -25 -50 -25 0 -25 1 -25 80 0 73 2 80 20
80 12 0 20 -7 20 -17z m-200 -32 c7 -13 7 -22 0 -26 -15 -9 -50 4 -50 19 0 31
34 35 50 7z"/>
<path d="M2020 2258 c-42 -21 -73 -45 -88 -68 -23 -34 -23 -38 -20 -282 l3
-247 30 -31 c16 -17 45 -35 65 -41 22 -7 131 -9 290 -7 245 3 256 4 286 25 57
41 64 77 64 321 0 206 -1 219 -23 256 -16 29 -38 48 -82 70 l-60 31 -200 3
-200 3 -65 -33z m465 -10 c14 -6 25 -15 25 -20 0 -4 9 -8 19 -8 11 0 33 -11
48 -24 l28 -24 3 -246 3 -247 -30 -29 -29 -30 -270 0 -270 0 -31 26 -31 26 0
248 0 248 31 26 c17 14 35 26 41 26 5 0 21 9 35 20 24 18 41 20 214 20 121 0
197 -4 214 -12z"/>
<path d="M2060 2220 c-19 -19 -20 -33 -20 -219 l0 -200 26 -20 c25 -20 40 -21
209 -21 169 0 184 1 209 21 l26 20 0 200 c0 186 -1 200 -20 219 -19 19 -33 20
-215 20 -182 0 -196 -1 -215 -20z m403 -28 c24 -26 25 -353 1 -376 -13 -13
-45 -16 -187 -16 -95 0 -179 5 -187 10 -21 13 -22 358 -1 383 12 15 38 17 186
17 152 0 174 -2 188 -18z"/>
<path d="M2235 2134 c-69 -36 -97 -91 -85 -167 16 -91 137 -148 204 -96 41 32
33 68 -21 94 -23 11 -45 23 -49 27 -11 12 17 38 41 38 23 0 47 22 58 52 8 24
-50 68 -89 68 -16 0 -42 -7 -59 -16z m115 -49 c0 -24 -3 -25 -33 -20 -45 9
-80 -20 -80 -64 0 -45 24 -66 74 -64 36 2 40 0 37 -20 -3 -19 -10 -22 -49 -25
-58 -4 -105 31 -115 84 -14 75 38 134 117 134 46 0 49 -2 49 -25z"/>
<path d="M1648 2083 c-9 -10 -19 -28 -22 -40 -4 -13 -15 -23 -24 -23 -19 0
-44 -25 -55 -53 -5 -13 1 -26 19 -41 40 -36 52 -48 83 -86 27 -32 31 -33 55
-22 15 7 34 28 42 47 8 19 21 35 29 35 19 0 55 39 55 60 0 18 -40 60 -57 60
-7 0 -14 8 -17 18 -18 54 -78 79 -108 45z m62 -58 l0 -45 46 0 c41 0 45 -2 42
-22 -3 -20 -8 -23 -45 -20 l-42 4 -3 -49 c-3 -40 -6 -48 -23 -48 -18 0 -20 6
-17 48 l4 49 -44 -4 c-38 -2 -43 0 -46 20 -3 20 1 22 44 22 l47 0 -7 38 c-6
43 -2 52 26 52 15 0 18 -8 18 -45z"/>
<path d="M495 1394 c-28 -14 -63 -39 -80 -55 l-30 -29 -3 -246 c-3 -236 -2
-246 18 -280 44 -70 34 -69 525 -69 422 0 441 1 474 20 68 40 72 61 69 327 -3
276 -2 272 -108 326 l-63 32 -376 0 -376 0 -50 -26z m830 -24 c10 -11 26 -20
36 -20 9 0 29 -14 43 -31 l26 -31 0 -238 c0 -238 0 -239 -24 -267 l-24 -28
-457 0 -457 0 -24 28 c-24 28 -24 29 -24 271 l0 243 26 27 c15 14 34 26 44 26
9 0 25 9 35 20 17 19 31 20 400 20 369 0 383 -1 400 -20z"/>
<path d="M526 1348 c-23 -33 -23 -393 0 -426 l15 -22 379 0 379 0 21 27 c20
26 21 37 19 211 -2 163 -5 187 -22 208 l-18 24 -379 0 -379 0 -15 -22z m761
-20 c10 -8 13 -57 13 -188 0 -159 -2 -179 -18 -193 -17 -15 -56 -17 -359 -16
-249 0 -345 3 -357 12 -14 10 -17 37 -17 191 0 115 4 183 11 192 16 19 32 19
390 16 206 -2 329 -7 337 -14z"/>
<path d="M736 1275 c-50 -18 -72 -39 -92 -91 -37 -98 30 -194 136 -194 22 0
49 5 60 12 14 9 24 9 42 0 30 -15 136 -10 165 8 19 12 24 12 42 -4 26 -23 65
-15 87 19 24 37 17 214 -10 244 -28 31 -61 26 -93 -14 -23 -29 -34 -35 -66
-35 -23 0 -51 8 -68 21 -16 11 -39 19 -52 18 -12 -2 -31 2 -43 9 -34 18 -67
21 -108 7z m414 -130 l0 -115 -25 0 -25 0 0 115 0 115 25 0 25 0 0 -115z
m-321 96 c27 -17 4 -41 -38 -41 -30 0 -44 -6 -55 -22 -37 -53 -2 -112 62 -106
32 3 37 0 40 -20 3 -20 0 -22 -52 -22 -43 0 -61 5 -81 23 -34 29 -44 91 -20
136 24 48 105 77 144 52z m91 -35 c0 -16 5 -23 17 -22 10 0 19 -7 21 -16 2
-13 -3 -18 -17 -18 -18 0 -21 -6 -21 -40 0 -29 4 -40 15 -40 21 0 31 -30 14
-41 -18 -11 -50 -2 -66 19 -7 9 -13 35 -13 58 0 23 -5 44 -12 46 -16 6 11 66
32 72 28 7 30 6 30 -18z m100 -33 c0 -15 1 -15 18 0 26 24 42 21 42 -7 0 -18
-6 -25 -22 -28 -20 -3 -23 -10 -26 -55 -3 -49 -5 -53 -28 -53 -23 0 -24 2 -24
80 0 73 2 80 20 80 12 0 20 -7 20 -17z m-206 -32 c20 -22 7 -36 -24 -26 -20 6
-26 25 -13 38 10 11 19 8 37 -12z"/>
<path d="M2027 1396 c-114 -55 -117 -65 -117 -347 0 -220 1 -233 22 -267 41
-66 69 -72 358 -69 290 2 303 6 340 82 18 38 20 61 19 262 -1 264 -5 277 -104
330 l-60 32 -205 0 c-193 -1 -208 -2 -253 -23z m474 -25 c13 -10 34 -21 46
-25 12 -4 32 -19 43 -33 19 -24 20 -40 20 -255 0 -252 -5 -275 -58 -297 -20
-9 -105 -11 -291 -9 l-263 3 -24 28 c-24 28 -24 29 -24 271 l0 243 26 27 c15
14 34 26 43 26 9 0 24 9 34 20 16 19 29 20 221 20 183 0 206 -2 227 -19z"/>
<path d="M2056 1348 c-13 -18 -16 -57 -16 -213 0 -156 3 -195 16 -213 15 -21
20 -22 218 -22 184 0 204 2 219 18 15 16 17 47 17 219 0 181 -2 201 -18 216
-16 15 -47 17 -220 17 -196 0 -201 -1 -216 -22z m414 -28 c5 -10 9 -94 9 -186
-1 -134 -4 -172 -16 -186 -12 -14 -38 -17 -172 -17 -87 -1 -170 3 -185 8 l-26
11 0 184 c0 140 3 186 13 195 13 10 295 20 345 12 12 -2 27 -11 32 -21z"/>
<path d="M2172 1261 c-28 -24 -28 -42 4 -143 27 -88 58 -128 97 -128 43 1 68
33 102 136 30 85 32 102 21 119 -23 34 -60 41 -91 17 l-27 -22 -28 20 c-35 25
-51 25 -78 1z m83 -98 c19 -83 24 -82 45 10 11 47 19 61 38 68 14 5 27 7 30 4
4 -3 -9 -53 -28 -110 -34 -102 -36 -105 -66 -105 -29 0 -31 2 -62 101 -18 55
-30 104 -27 108 2 5 15 6 28 4 20 -4 26 -15 42 -80z"/>
<path d="M1648 1223 c-9 -10 -18 -27 -22 -38 -3 -11 -19 -26 -36 -32 -19 -7
-31 -20 -36 -39 -8 -33 4 -54 40 -72 15 -8 31 -23 35 -35 5 -12 19 -31 31 -42
19 -18 24 -18 47 -5 15 8 34 27 42 42 9 14 31 39 49 54 41 33 39 60 -8 92 -19
13 -37 29 -39 35 -8 25 -45 57 -66 57 -12 0 -29 -8 -37 -17z m62 -58 l0 -45
46 0 c41 0 45 -2 42 -22 -3 -20 -8 -23 -45 -20 l-42 3 -3 -48 c-3 -40 -6 -48
-23 -48 -18 0 -20 6 -17 48 l4 49 -44 -4 c-38 -3 -43 -1 -46 20 -3 20 1 22 44
22 l47 0 -7 38 c-6 43 -2 52 26 52 15 0 18 -8 18 -45z"/>
</g>
</svg>
